<svg xmlns="http://www.w3.org/2000/svg" width="600" height="400" viewBox="0 0 600 400">
  <defs>
    <linearGradient id="corp" x1="0%" y1="0%" x2="100%" y2="100%">
      <stop offset="0%" style="stop-color:#f0fdf4;stop-opacity:1" />
      <stop offset="100%" style="stop-color:#dcfce7;stop-opacity:1" />
    </linearGradient>
  </defs>
  
  <!-- Background -->
  <rect width="600" height="400" fill="url(#corp)"/>
  <rect x="20" y="20" width="560" height="360" fill="white" stroke="#d1d5db" stroke-width="2" rx="8"/>
  
  <!-- Top Bar -->
  <rect x="20" y="20" width="560" height="40" fill="#f3f4f6" rx="8" ry="8"/>
  <circle cx="35" cy="40" r="4" fill="#ef4444"/>
  <circle cx="50" cy="40" r="4" fill="#f59e0b"/>
  <circle cx="65" cy="40" r="4" fill="#10b981"/>
  <text x="300" y="38" font-size="11" fill="#6b7280" text-anchor="middle" font-family="monospace">www.company.com</text>
  
  <!-- Nav Bar -->
  <rect x="30" y="70" width="540" height="45" fill="white" stroke="#e5e7eb" stroke-width="1"/>
  <rect x="40" y="77" width="80" height="8" fill="#10b981"/>
  <text x="100" y="82" font-size="10" fill="#6b7280" font-family="Arial">About</text>
  <text x="160" y="82" font-size="10" fill="#6b7280" font-family="Arial">Services</text>
  <text x="240" y="82" font-size="10" fill="#6b7280" font-family="Arial">Portfolio</text>
  <text x="320" y="82" font-size="10" fill="#6b7280" font-family="Arial">Contact</text>
  <rect x="450" y="73" width="80" height="28" fill="#10b981" rx="4"/>
  <text x="490" y="92" font-size="11" font-weight="bold" fill="white" text-anchor="middle" font-family="Arial">Contact Us</text>
  
  <!-- Hero Content -->
  <rect x="40" y="130" width="520" height="70" fill="#f0fdf4" stroke="#bbf7d0" stroke-width="1" rx="4"/>
  <text x="60" y="155" font-size="20" font-weight="bold" fill="#166534" font-family="Arial">Your Professional Online Presence</text>
  <text x="60" y="175" font-size="12" fill="#4b7c59" font-family="Arial">Enterprise-grade website with modern design and full-featured CMS</text>
  <text x="60" y="192" font-size="11" fill="#6b7280" font-family="Arial">✓ Mobile responsive  ✓ Secure  ✓ SEO friendly  ✓ Easy to maintain</text>
  
  <!-- Content Cards -->
  <rect x="40" y="220" width="160" height="100" fill="white" stroke="#e5e7eb" stroke-width="1" rx="4"/>
  <rect x="45" y="225" width="150" height="40" fill="#dcfce7" rx="2"/>
  <text x="60" y="248" font-size="11" font-weight="bold" fill="#166534" font-family="Arial">Professional Design</text>
  <text x="50" y="268" font-size="9" fill="#6b7280" font-family="Arial">Custom tailored</text>
  
  <rect x="220" y="220" width="160" height="100" fill="white" stroke="#e5e7eb" stroke-width="1" rx="4"/>
  <rect x="225" y="225" width="150" height="40" fill="#dcfce7" rx="2"/>
  <text x="240" y="248" font-size="11" font-weight="bold" fill="#166534" font-family="Arial">Security First</text>
  <text x="230" y="268" font-size="9" fill="#6b7280" font-family="Arial">SSL & protection</text>
  
  <rect x="400" y="220" width="150" height="100" fill="white" stroke="#e5e7eb" stroke-width="1" rx="4"/>
  <rect x="405" y="225" width="140" height="40" fill="#dcfce7" rx="2"/>
  <text x="420" y="248" font-size="11" font-weight="bold" fill="#166534" font-family="Arial">24/7 Support</text>
  <text x="410" y="268" font-size="9" fill="#6b7280" font-family="Arial">Always available</text>
</svg>