<svg xmlns="http://www.w3.org/2000/svg" width="800" height="300" viewBox="0 0 800 300">
  <defs>
    <linearGradient id="proj6" x1="0%" y1="0%" x2="100%" y2="100%">
      <stop offset="0%" style="stop-color:#fee2e2;stop-opacity:1" />
      <stop offset="100%" style="stop-color:#fecaca;stop-opacity:1" />
    </linearGradient>
  </defs>
  <rect width="800" height="300" fill="url(#proj6)"/>
  
  <!-- Security Audit Report -->
  <rect x="35" y="20" width="730" height="260" fill="white" stroke="#d1d5db" stroke-width="1" rx="6"/>
  
  <!-- Header -->
  <rect x="35" y="20" width="730" height="50" fill="#ef4444" rx="6" ry="6"/>
  <text x="65" y="45" font-size="16" font-weight="bold" fill="white" font-family="Arial">🔒 Security Audit Report</text>
  <text x="65" y="58" font-size="9" fill="#fecaca" font-family="Arial">Last Scan: Jan 3, 2026 | Status: Critical</text>
  
  <!-- Risk Level Indicators -->
  <text x="65" y="85" font-size="12" font-weight="bold" fill="#7f1d1d" font-family="Arial">Vulnerability Summary</text>
  
  <rect x="50" y="100" width="160" height="70" fill="#fee2e2" stroke="#fca5a5" stroke-width="1" rx="4"/>
  <rect x="65" y="110" width="30" height="30" fill="#ef4444" rx="4"/>
  <text x="80" y="132" font-size="16" font-weight="bold" fill="white" text-anchor="middle" font-family="Arial">8</text>
  <text x="110" y="125" font-size="10" font-weight="bold" fill="#7f1d1d" font-family="Arial">Critical</text>
  <text x="110" y="138" font-size="9" fill="#b91c1c" font-family="Arial">Needs immediate fix</text>
  
  <rect x="235" y="100" width="160" height="70" fill="#fee2e2" stroke="#fde68a" stroke-width="1" rx="4"/>
  <rect x="250" y="110" width="30" height="30" fill="#f97316" rx="4"/>
  <text x="265" y="132" font-size="16" font-weight="bold" fill="white" text-anchor="middle" font-family="Arial">12</text>
  <text x="295" y="125" font-size="10" font-weight="bold" fill="#7f1d1d" font-family="Arial">High</text>
  <text x="295" y="138" font-size="9" fill="#b91c1c" font-family="Arial">Should be fixed</text>
  
  <rect x="420" y="100" width="160" height="70" fill="#fee2e2" stroke="#a5f3fc" stroke-width="1" rx="4"/>
  <rect x="435" y="110" width="30" height="30" fill="#06b6d4" rx="4"/>
  <text x="450" y="132" font-size="16" font-weight="bold" fill="white" text-anchor="middle" font-family="Arial">24</text>
  <text x="480" y="125" font-size="10" font-weight="bold" fill="#7f1d1d" font-family="Arial">Medium</text>
  <text x="480" y="138" font-size="9" fill="#b91c1c" font-family="Arial">Consider fixing</text>
  
  <rect x="605" y="100" width="160" height="70" fill="#fee2e2" stroke="#bbf7d0" stroke-width="1" rx="4"/>
  <rect x="620" y="110" width="30" height="30" fill="#10b981" rx="4"/>
  <text x="635" y="132" font-size="16" font-weight="bold" fill="white" text-anchor="middle" font-family="Arial">35</text>
  <text x="665" y="125" font-size="10" font-weight="bold" fill="#7f1d1d" font-family="Arial">Low</text>
  <text x="665" y="138" font-size="9" fill="#b91c1c" font-family="Arial">Keep monitoring</text>
  
  <!-- Recommendations -->
  <text x="65" y="190" font-size="11" font-weight="bold" fill="#7f1d1d" font-family="Arial">Top Recommendations:</text>
  
  <circle cx="75" cy="210" r="3" fill="#ef4444"/>
  <text x="90" y="213" font-size="9" fill="#7f1d1d" font-family="Arial">Update SSL/TLS certificates to latest version</text>
  
  <circle cx="75" cy="230" r="3" fill="#ef4444"/>
  <text x="90" y="233" font-size="9" fill="#7f1d1d" font-family="Arial">Implement Web Application Firewall (WAF)</text>
  
  <circle cx="75" cy="250" r="3" fill="#ef4444"/>
  <text x="90" y="253" font-size="9" fill="#7f1d1d" font-family="Arial">Enable multi-factor authentication for admin access</text>
</svg>
</svg>