<svg xmlns="http://www.w3.org/2000/svg" width="800" height="300" viewBox="0 0 800 300">
  <defs>
    <linearGradient id="proj2" x1="0%" y1="0%" x2="100%" y2="100%">
      <stop offset="0%" style="stop-color:#ecf0ff;stop-opacity:1" />
      <stop offset="100%" style="stop-color:#cffafe;stop-opacity:1" />
    </linearGradient>
  </defs>
  <rect width="800" height="300" fill="url(#proj2)"/>
  
  <!-- App Frame -->
  <rect x="40" y="30" width="720" height="240" fill="white" stroke="#d1d5db" stroke-width="1" rx="6"/>
  
  <!-- Header -->
  <rect x="40" y="30" width="720" height="45" fill="#06b6d4" rx="6" ry="6"/>
  <text x="70" y="57" font-size="15" font-weight="bold" fill="white" font-family="Arial">SaaS Platform Analytics</text>
  <rect x="660" y="38" width="90" height="30" fill="#22d3ee" rx="3"/>
  <text x="705" y="57" font-size="10" font-weight="bold" fill="white" text-anchor="middle" font-family="Arial">👤 User</text>
  
  <!-- Tabs -->
  <rect x="55" y="82" width="100" height="25" fill="#06b6d4" rx="3"/>
  <text x="105" y="99" font-size="10" font-weight="bold" fill="white" text-anchor="middle" font-family="Arial">Overview</text>
  <text x="175" y="99" font-size="10" fill="#6b7280" font-family="Arial">Analytics</text>
  <text x="265" y="99" font-size="10" fill="#6b7280" font-family="Arial">Reports</text>
  
  <!-- Metrics Row -->
  <rect x="55" y="120" width="150" height="60" fill="#f0f9ff" stroke="#bae6fd" stroke-width="1" rx="4"/>
  <text x="70" y="138" font-size="11" fill="#6b7280" font-family="Arial">Active Users</text>
  <text x="70" y="160" font-size="18" font-weight="bold" fill="#06b6d4" font-family="Arial">2,458</text>
  
  <rect x="225" y="120" width="150" height="60" fill="#f0f9ff" stroke="#bae6fd" stroke-width="1" rx="4"/>
  <text x="240" y="138" font-size="11" fill="#6b7280" font-family="Arial">Conversions</text>
  <text x="240" y="160" font-size="18" font-weight="bold" fill="#06b6d4" font-family="Arial">1,852</text>
  
  <rect x="395" y="120" width="150" height="60" fill="#f0f9ff" stroke="#bae6fd" stroke-width="1" rx="4"/>
  <text x="410" y="138" font-size="11" fill="#6b7280" font-family="Arial">Revenue</text>
  <text x="410" y="160" font-size="18" font-weight="bold" fill="#06b6d4" font-family="Arial">$54K</text>
  
  <rect x="565" y="120" width="150" height="60" fill="#f0f9ff" stroke="#bae6fd" stroke-width="1" rx="4"/>
  <text x="580" y="138" font-size="11" fill="#6b7280" font-family="Arial">Growth</text>
  <text x="580" y="160" font-size="18" font-weight="bold" fill="#10b981" font-family="Arial">+18%</text>
  
  <!-- Chart Area -->
  <rect x="55" y="200" width="660" height="55" fill="#f9fafb" stroke="#e5e7eb" stroke-width="1" rx="4"/>
  <text x="70" y="216" font-size="10" font-weight="bold" fill="#6b7280" font-family="Arial">Visitor Trend (Last 30 Days)</text>
  <path d="M 85 250 Q 150 220 215 240 T 345 220 T 475 235 T 600 215 T 705 230" 
        stroke="#06b6d4" stroke-width="2" fill="none" opacity="0.8"/>
  <circle cx="85" cy="250" r="2" fill="#06b6d4"/>
  <circle cx="705" cy="230" r="2" fill="#06b6d4"/>
</svg>