<svg xmlns="http://www.w3.org/2000/svg" width="800" height="300" viewBox="0 0 800 300">
  <defs>
    <linearGradient id="proj4" x1="0%" y1="0%" x2="100%" y2="100%">
      <stop offset="0%" style="stop-color:#f3e8ff;stop-opacity:1" />
      <stop offset="100%" style="stop-color:#ede9fe;stop-opacity:1" />
    </linearGradient>
  </defs>
  <rect width="800" height="300" fill="url(#proj4)"/>
  
  <!-- Corporate Website Layout -->
  <rect x="25" y="20" width="750" height="260" fill="white" stroke="#d1d5db" stroke-width="1" rx="6"/>
  
  <!-- Header -->
  <rect x="25" y="20" width="750" height="60" fill="#8b5cf6" rx="6" ry="6"/>
  <text x="50" y="47" font-size="18" font-weight="bold" fill="white" font-family="Arial">Corporate Name</text>
  <text x="50" y="65" font-size="10" fill="#e9d5ff" font-family="Arial">Professional Solutions for Your Business</text>
  <rect x="670" y="33" width="90" height="30" fill="#a78bfa" rx="3"/>
  <text x="715" y="52" font-size="11" font-weight="bold" fill="white" text-anchor="middle" font-family="Arial">Contact Us</text>
  
  <!-- Navigation -->
  <rect x="40" y="90" width="100" height="20" fill="#8b5cf6" rx="2"/>
  <text x="90" y="103" font-size="10" font-weight="bold" fill="white" text-anchor="middle" font-family="Arial">About</text>
  <text x="160" y="103" font-size="10" fill="#6b7280" font-family="Arial">Services</text>
  <text x="240" y="103" font-size="10" fill="#6b7280" font-family="Arial">Portfolio</text>
  <text x="320" y="103" font-size="10" fill="#6b7280" font-family="Arial">Blog</text>
  
  <!-- Content Sections -->
  <rect x="40" y="125" width="340" height="135" fill="#f3e8ff" stroke="#ddd6fe" stroke-width="1" rx="4"/>
  <text x="60" y="145" font-size="12" font-weight="bold" fill="#6b21a8" font-family="Arial">Our Services</text>
  <circle cx="65" cy="170" r="6" fill="#8b5cf6"/>
  <text x="85" y="175" font-size="10" fill="#6b21a8" font-family="Arial">Strategic Consulting</text>
  <circle cx="65" cy="195" r="6" fill="#8b5cf6"/>
  <text x="85" y="200" font-size="10" fill="#6b21a8" font-family="Arial">Digital Transformation</text>
  <circle cx="65" cy="220" r="6" fill="#8b5cf6"/>
  <text x="85" y="225" font-size="10" fill="#6b21a8" font-family="Arial">Technology Solutions</text>
  
  <rect x="410" y="125" width="340" height="135" fill="#f3e8ff" stroke="#ddd6fe" stroke-width="1" rx="4"/>
  <text x="430" y="145" font-size="12" font-weight="bold" fill="#6b21a8" font-family="Arial">Why Choose Us?</text>
  <text x="430" y="170" font-size="10" fill="#6b21a8" font-family="Arial">✓ 20+ years of experience</text>
  <text x="430" y="190" font-size="10" fill="#6b21a8" font-family="Arial">✓ Award-winning team</text>
  <text x="430" y="210" font-size="10" fill="#6b21a8" font-family="Arial">✓ Proven track record</text>
  <text x="430" y="230" font-size="10" fill="#6b21a8" font-family="Arial">✓ 24/7 customer support</text>
</svg>